PathFileType	4	(X/Y/Z)	Walk1.trc
DataRate	CameraRate	NumFrames	NumMarkers	Units	OrigDataRate	OrigDataStartFrame	OrigNumFrames
200.000000	200.000000	9	59	mm	200.000000	401	554
Frame#	Times		LBHD		C7		T10		RBack		LPSI		RPSI		LTB1		RCAR		LMT5		LLFC		LFHD		RWRR		LTH4		LUA1		RBHD		RElbowM		LElbowM		RUA1		RFA1		CLAV		RTH3		RACR1		LACR1		RWRU		RTH2		LWRU		LCAR		RFHD		RTB1		LFA1		RElbow		RTB2		RCAL		RTH4		RTB4		RToe		RTB3		RMT1		RLFC		RTH1		RMT5		LElbow		LTB4		RLMAL		STRN		LASI		LTB3		LWRR		LTH3		RASI		LLMAL		LTH1		LMT1		RMMAL		LCAL		LTH2		LTB2		LMMAL		LToe
			X1	Y1	Z1	X2	Y2	Z2	X3	Y3	Z3	X4	Y4	Z4	X5	Y5	Z5	X6	Y6	Z6	X7	Y7	Z7	X8	Y8	Z8	X9	Y9	Z9	X10	Y10	Z10	X11	Y11	Z11	X12	Y12	Z12	X13	Y13	Z13	X14	Y14	Z14	X15	Y15	Z15	X16	Y16	Z16	X17	Y17	Z17	X18	Y18	Z18	X19	Y19	Z19	X20	Y20	Z20	X21	Y21	Z21	X22	Y22	Z22	X23	Y23	Z23	X24	Y24	Z24	X25	Y25	Z25	X26	Y26	Z26	X27	Y27	Z27	X28	Y28	Z28	X29	Y29	Z29	X30	Y30	Z30	X31	Y31	Z31	X32	Y32	Z32	X33	Y33	Z33	X34	Y34	Z34	X35	Y35	Z35	X36	Y36	Z36	X37	Y37	Z37	X38	Y38	Z38	X39	Y39	Z39	X40	Y40	Z40	X41	Y41	Z41	X42	Y42	Z42	X43	Y43	Z43	X44	Y44	Z44	X45	Y45	Z45	X46	Y46	Z46	X47	Y47	Z47	X48	Y48	Z48	X49	Y49	Z49	X50	Y50	Z50	X51	Y51	Z51	X52	Y52	Z52	X53	Y53	Z53	X54	Y54	Z54	X55	Y55	Z55	X56	Y56	Z56	X57	Y57	Z57	X58	Y58	Z58	X59	Y59	Z59

401	2.005	295.68	1499.2	-35.406	253.74	1366.1	33.406	226.79	1090.7	25.051	233.04	1258.4	161.74	207.44	897.47	-15.742	208.64	903.47	83.849	434.38	346.24	-76.453	450.88	749	312.08	245.62	89.767	-91.98	445.41	466.32	-147.47	468.09	1479.8	-20.552	464.42	797.35	271.4	420.25	667.36	-162.81	312.82	1139.6	-220.63	300.21	1507.3	87.642	290.07	960.1	220.63	243.05	992.31	-174.78	349.02	1143.1	261.76	355.56	873.68	302.31	375.36	1282.7	32.557	385.21	555.34	177.26	331.07	1299.5	182.98	322.76	1307.4	-133.27	397.09	770.05	288.26	441.87	665.22	163.78	333.55	785.02	-272.44	382.56	748.89	-289.9	476.95	1488.4	56.175	415.47	330.18	70.998	303.56	901.6	-267.22	334.94	1000.6	298.99	394.86	238.5	144.66	317.88	38.011	102.76	377.16	648.16	201.23	406.11	238.13	73.725	526.82	23.31	50.471	409.47	144.85	70.104	468.58	43.57	49.291	407	456.22	156.33	372.78	733.67	227.42	455.08	32.72	107.74	273.82	1024.4	-240.71	367.06	285.53	-58.61	379.46	63.446	119.98	440.99	1181.6	23.425	402.52	876.89	-140.73	315.96	211.85	-47.168	400.84	786.34	-240.57	449.06	577.68	-152.35	434.63	881.06	170.44	205.9	171.26	-65.629	385.6	754.74	-175.97	289.56	85.532	-49.882	371.63	68.557	40.126	164.55	167.45	-10.804	481.3	696.36	-133.77	330.13	307.14	-115.88	245.19	154.83	2.9369	310.08	41.505	-78.947
402	2.01	301.41	1499.3	-35.784	259.42	1366.3	33.139	231.87	1091.1	24.949	238.26	1258.7	161.6	212.54	897.59	-15.725	214.03	903.74	83.714	446.3	347.06	-75.308	460.48	750.87	311.86	264.84	86.993	-92.743	455.39	467.46	-146.67	473.96	1479.7	-20.938	473.41	799.49	270.87	427.75	668.02	-162.08	317.65	1139.8	-220.72	305.97	1507.6	87.52	296.71	960.32	220.85	248	992.41	-174.47	354.69	1143.7	261.95	363.48	874.52	302.46	380.85	1282.7	32.273	388.52	555.43	177.41	336.39	1299.8	182.57	327.94	1307.5	-133.37	406.32	771.34	288.7	445.68	664.49	163.48	336.94	785.05	-272.38	385.87	748.74	-290.38	482.65	1488.5	55.771	415.89	329.89	71.488	307.37	901.65	-267.16	341.51	1001.2	299.45	395.38	238.39	144.93	317.9	38.04	102.77	381.36	648.46	201.32	406.37	238.13	74.208	526.85	23.177	50.518	409.8	144.41	70.361	468.6	43.469	49.237	408.38	455.97	156.6	377.18	734.29	227.99	455.1	32.656	107.59	278.04	1024.4	-240.47	380.6	284.85	-58.056	379.54	63.487	120.08	446.03	1181.7	22.884	407.88	877.45	-140.65	331.31	210.14	-47.012	404.52	786.2	-240.95	457.38	579.15	-151.76	439.68	881.5	170.59	222.31	166.05	-66.106	392.18	755.09	-175.71	308.48	83.77	-50.016	371.63	68.647	40.083	180.55	161.06	-11.439	488.22	697.91	-133.02	343.7	305.23	-115.78	261.35	151.08	2.5312	329.94	41.339	-79.293
403	2.015	307.2	1499.2	-36.192	264.77	1366.5	32.506	236.97	1091.3	24.909	243.75	1259.1	161.29	217.86	897.55	-15.814	219.14	904.04	83.821	458.13	347.89	-73.86	470.04	752.77	311.25	283.66	83.868	-93.341	465.4	468.46	-145.86	479.63	1479.5	-21.215	482.08	801.8	270.28	435.32	668.79	-161.62	322.39	1139.9	-220.81	311.86	1507.9	86.849	303.21	960.59	221.46	252.84	992.63	-174.09	360.14	1144.2	262.14	371.69	875.33	302.58	386.1	1282.8	32.152	391.57	555.32	177.66	341.75	1299.9	182.48	333.22	1307.6	-133.96	416.32	772.19	288.72	449.8	664.28	162.66	340.51	785.01	-272.64	389.26	748.54	-290.94	488.24	1488.2	55.361	417.37	330.09	71.722	311.28	901.65	-267.34	347.9	1001.5	299.51	395.66	238.3	145.21	317.79	38.124	102.85	385.84	648.41	201.44	406.66	238.15	74.558	526.84	23.147	50.641	409.8	144.72	70.358	468.62	43.374	49.181	409.75	455.95	156.86	382.41	734.51	227.89	455	32.591	108	282.24	1024.7	-240.24	394.19	283.7	-57.396	379.6	63.431	120.09	451.29	1181.7	22.573	413.27	877.55	-140.4	346.19	207.81	-46.204	408.1	786.33	-241.99	465.77	580.23	-151.22	445.17	881.59	170.77	238.96	160.76	-66.446	398.56	755	-175.41	327.08	81.676	-50.035	371.6	68.717	40.184	196.77	154.67	-12.004	495.33	699.53	-132.2	357.28	303.14	-115.6	277.7	147.17	2.1662	350.63	39.916	-79.201
404	2.02	312.8	1499.2	-36.574	270.39	1366.5	32.406	242.07	1091.4	24.639	248.99	1259.3	161.23	223.14	897.45	-15.758	224.49	904.42	83.845	469.56	348.82	-72.033	479.35	754.68	310.71	302.45	80.345	-93.717	475.06	469.36	-144.92	485.23	1479.1	-21.516	490.71	803.61	269.76	442.72	669.42	-160.86	327.23	1139.9	-220.85	317.37	1507.9	86.288	310.2	960.28	222.08	258.34	993.08	-173.5	365.51	1144.7	262.25	379.58	876.09	302.67	391.36	1282.8	31.839	394.8	555.15	177.99	347.11	1300.2	182.35	338.58	1307.6	-134.23	424.94	772.98	289.02	453.32	663.91	162.1	343.89	784.96	-273.38	392.49	748.34	-291.34	494.01	1487.9	54.919	418.59	330.34	71.942	315.14	901.73	-267.45	354.29	1001.7	299.62	395.83	238.26	145.48	317.75	38.211	102.94	390.32	648.36	201.62	406.97	238.23	74.834	526.92	23.28	50.345	409.8	144.44	70.082	468.61	43.273	49.191	410.67	456.31	157.32	388.63	734.79	227.62	454.88	32.438	107.94	286.46	1024.9	-240.12	407.67	282.92	-56.64	379.12	62.945	119.77	456.44	1181.8	22.45	418.53	877.7	-139.89	361.07	205.62	-45.376	411.38	785.9	-242.32	474.1	581.01	-150.5	450.5	881.75	170.63	255.62	155.68	-66.939	405.44	755	-175.04	346.32	80.096	-50.274	371.54	68.823	40.254	213.27	148.22	-12.596	502.42	700.85	-131.42	370.99	300.96	-115.39	294.48	143.32	1.943	371.71	38.355	-79.598
405	2.025	318.52	1499.2	-37.175	275.87	1366.5	32.15	247.16	1091.3	24.65	254.49	1259.7	161.15	228.6	897.33	-15.82	229.46	904.72	83.89	481.12	349.49	-70.442	488.87	756.61	310.44	321.79	76.152	-93.461	484.6	470.26	-143.96	491.03	1478.8	-21.912	499.47	805.51	269.04	450.04	669.87	-160.39	331.97	1139.8	-220.84	323.02	1507.8	86.061	317.15	959.84	222.67	263.45	993.02	-173.21	371.03	1145	262.41	387.31	876.48	302.81	396.8	1282.6	31.546	397.86	555.06	178.1	352.59	1300.2	182.06	343.95	1307.6	-134.34	433.16	774.19	289.75	456.53	663.14	161.44	347.24	784.99	-273.96	395.67	747.94	-291.71	499.7	1487.7	54.603	419.15	330.33	72.338	319.13	901.83	-267.64	360.7	1002.1	299.95	396.12	238.21	145.83	318.65	38.471	102.55	394.07	648.16	202.26	407.29	238.27	74.983	527.01	23.196	50.521	409.98	144.44	70.055	468.65	43.22	49.19	411.49	456.39	158.16	394.9	734.71	227.16	454.95	32.458	108.16	290.76	1024.8	-240.05	421.25	282.32	-56.071	379.39	62.955	119.85	461.69	1181.5	22.375	423.89	877.59	-139.27	376.36	203.31	-44.649	414.6	785.12	-242.15	482.48	582.15	-149.64	456.1	881.9	170.72	272.65	150.59	-67.559	412.81	755.44	-174.74	366.07	77.987	-50.56	371.51	68.926	40.322	229.61	141.4	-13.223	509.14	702.16	-130.61	384.8	298.52	-115.15	312.24	139.79	1.0418	392.68	37.738	-80.113
406	2.03	324.2	1498.9	-37.4	281.4	1366.7	31.956	252.42	1091.3	24.366	259.78	1259.9	160.83	233.74	897.1	-15.736	234.33	904.97	83.774	492.83	350.19	-69.209	498.2	758.34	309.94	342.18	72.589	-93.73	494.02	471.18	-142.96	496.74	1478.3	-22.406	508.02	807.5	268.68	457.22	670.33	-159.9	336.99	1139.8	-221	329.37	1507.7	85.972	324	959.73	223.13	268.32	992.93	-172.9	376.54	1145.1	262.48	395.55	877.18	303.15	402.03	1282.5	31.416	400.34	555.03	178.38	358.03	1300.3	181.81	349.32	1307.6	-134.6	442.53	777.06	289.52	461.15	662.29	160.6	350.8	784.99	-274.27	398.85	747.63	-292.17	505.33	1487.5	54.032	419.33	330.31	72.853	323.04	901.87	-267.72	367.59	1002.5	300.3	396.36	238.22	146.17	318.04	38.298	102.81	398.31	648.03	202.46	407.51	238.76	75.346	527.03	23.17	50.751	410.24	144.55	70.241	468.66	43.13	49.218	411.91	456.2	158.88	401.03	734.66	226.84	455	32.473	108.29	295.32	1024.7	-240.03	435.55	281.52	-55.315	379.68	63.221	120.05	466.94	1181	22.13	429.3	877.39	-138.89	392.34	201.03	-44.69	417.84	784.09	-242.14	490.73	583.28	-148.94	461.11	881.99	170.84	290.11	145.37	-68.229	418.88	755.61	-174.67	385.56	76.114	-50.991	371.4	69.151	40.475	246.75	135.03	-14.057	515.83	703.29	-129.67	398.68	296.42	-115.21	329.9	135.83	0.47299	413.75	37.489	-80.841
407	2.035	330.06	1498.9	-37.846	287.14	1366.6	31.93	257.69	1090.9	24.074	265.18	1259.8	160.56	238.97	896.63	-15.678	239.58	905.19	83.55	506.24	351.36	-67.217	507.42	760.2	309.56	362.63	69.284	-94.041	503.31	471.96	-142.19	502.44	1477.8	-22.892	516.54	809.28	268.39	464.3	670.78	-159.38	342.06	1139.8	-221.27	335.15	1507.7	85.367	330.59	959.78	223.41	272.92	993.18	-172.72	382.07	1145.3	262.39	403.38	877.82	302.93	407.43	1282.4	31.227	403.38	554.94	178.71	363.34	1300.4	181.63	354.67	1307.1	-134.76	451.25	779.3	289.39	465.61	661.36	159.54	354.28	784.8	-274.52	401.86	747.27	-292.47	511.19	1486.9	53.461	419.42	330.65	73.617	326.86	901.79	-267.92	374	1002.9	300.87	396.55	238.24	146.5	317.73	38.326	102.89	402.3	648.05	202.44	408.55	239.18	76.266	527.16	23.12	50.673	410.25	144.52	70.756	468.76	43.08	49.189	412.79	455.94	159.63	405.97	733.93	227.49	455.02	32.305	108.01	299.74	1024.8	-239.93	449.1	280.47	-54.431	379.77	63.306	120.15	472.12	1180.8	21.877	434.89	877.16	-138.75	408	199.1	-44.216	421.12	783.58	-242.38	498.68	584.16	-148.12	466.49	882.25	170.67	307.73	140.13	-68.801	424.74	755.55	-174.46	404.93	74.209	-51.195	371.19	69.433	40.537	264.51	128.39	-15.102	522.68	704.42	-129.02	412.49	293.81	-114.66	347.25	131.68	0.20814	434.57	36.913	-80.92
408	2.04	335.76	1498.6	-38.301	292.59	1366.4	31.422	262.97	1090.9	23.922	270.68	1259.8	160.47	244.29	896.4	-16.382	244.73	905.06	83.64	518.39	352.39	-66.099	516.58	761.96	309.1	382.72	66.264	-94.995	512.57	472.73	-141.32	508.11	1477.2	-23.23	525.25	811.17	268.08	471.48	671.14	-158.82	347.06	1139.6	-221.41	340.4	1507.5	84.858	337.38	959.49	223.54	277.24	993.26	-172.72	387.5	1145.4	262.49	410.82	877.99	302.68	412.89	1281.9	31.039	405.73	554.73	178.94	368.81	1300.4	181.39	360.07	1307	-134.99	460.77	780.2	288.96	469.35	660.42	158.55	357.57	784.35	-274.91	405.07	746.73	-292.96	516.87	1486.4	53.261	419.9	330.75	74.144	330.83	901.57	-268.09	380.41	1002.8	300.91	396.72	238.23	146.73	317.7	38.461	102.93	406.27	647.94	202.58	408.07	239.1	75.144	527.27	23.149	50.67	410.87	145.22	71.028	468.67	42.885	49.136	413.76	455.81	160.26	411.04	733.67	227.98	455.03	32.186	107.74	304.18	1024.8	-240.07	462.34	279.37	-53.811	379.75	63.236	120.14	477.5	1180.4	21.814	440.32	877.09	-138.81	423.4	197.21	-43.66	424.65	783.03	-243.1	506.57	584.94	-147.45	471.77	882.16	170.8	325.42	135.04	-69.378	430.88	755.48	-174.08	424.56	72.04	-51.465	370.83	69.588	40.512	282.35	121.8	-15.746	529.03	705.37	-128.23	426.3	291.94	-114.67	364.16	127.15	0.17279	455.62	36.47	-80.563
409	2.045	341.47	1498.3	-38.827	298.06	1366.4	31.037	268.34	1090.7	23.428	275.94	1259.7	160.35	249.38	895.94	-16.342	249.81	904.91	83.616	528.79	352.63	-65.536	526.01	763.6	308.51	402.99	62.661	-96.031	521.43	473.36	-140.54	513.71	1476.6	-23.662	533.65	812.9	267.83	478.4	671.45	-158.37	352.03	1139.3	-221.47	346.22	1507.3	84.321	344.18	958.98	223.61	281.57	993.2	-172.78	392.95	1145.3	262.44	418.81	878.22	302.33	418.27	1281.4	30.795	407.79	554.63	179.26	374.38	1300.2	181.06	365.53	1306.7	-135.14	469.76	780.61	288.3	472.62	659.46	158.01	360.93	784.1	-275.44	408.27	746.19	-293.36	522.72	1485.8	52.672	420.73	330.61	74.505	334.51	901.26	-268.31	386.76	1002.7	300.77	397.08	237.95	146.65	317.84	38.491	102.77	410.27	647.88	202.93	409.81	238.34	76.051	527.33	23.234	50.79	410.84	145.19	71.47	468.69	42.502	49.102	414.69	455.82	160.55	416.63	733.57	227.86	455.09	32.33	108.07	308.68	1024.8	-240.32	475.43	278.35	-53.104	379.69	63.164	120.01	482.69	1180.1	21.556	445.72	876.98	-138.87	439.16	194.91	-43.315	428.03	782.5	-243.58	514.23	585.52	-146.55	476.98	882.05	170.83	343.46	129.99	-69.937	437.06	755.62	-173.91	444.31	70.458	-52.049	370.56	69.684	40.497	300.47	115.06	-16.463	535.61	706.28	-127.55	440.07	289.96	-114.84	381	122.82	0.32554	476.97	36.422	-79.769
